<svg xmlns="http://www.w3.org/2000/svg" viewBox="0 0 200 48" fill="none">
  <!-- Icon: 云朵 + 对话气泡组合 -->
  <g transform="translate(0, 8)">
    <!-- 云朵形状 -->
    <path d="M8 20C8 13.373 13.373 8 20 8C21.7 8 23.3 8.4 24.7 9.1C26.4 5.7 29.9 3.5 34 3.5C40.1 3.5 45 8.4 45 14.5C45 14.9 44.9 15.3 44.9 15.7C48.6 16.8 51.5 20.1 51.5 24.5C51.5 29.5 47.5 33.5 42.5 33.5H15C9.5 33.5 5 29 5 23.5C5 21.8 5.5 20.2 6.3 18.8" stroke="#0d9488" stroke-width="2.5" stroke-linecap="round" stroke-linejoin="round" fill="none"/>
    <!-- 对话气泡 -->
    <path d="M18 16H38C39.1 16 40 16.9 40 18V26C40 27.1 39.1 28 38 28H28L22 33V28H18C16.9 28 16 27.1 16 26V18C16 16.9 16.9 16 18 16Z" fill="#0d9488"/>
    <!-- 三个点表示消息 -->
    <circle cx="23" cy="22" r="1.5" fill="white"/>
    <circle cx="28" cy="22" r="1.5" fill="white"/>
    <circle cx="33" cy="22" r="1.5" fill="white"/>
  </g>
  
  <!-- 品牌名称：询盘云 -->
  <text x="60" y="32" font-family="system-ui, -apple-system, sans-serif" font-size="22" font-weight="600" fill="#1c1917" letter-spacing="0.05em">询盘云</text>
  
  <!-- 英文副标 -->
  <text x="60" y="42" font-family="system-ui, -apple-system, sans-serif" font-size="9" font-weight="400" fill="#78716c" letter-spacing="0.1em">INQUIRY CLOUD</text>
</svg>
